<?xml version="1.0" encoding="UTF-8" standalone="no"?>
<svg
   xmlns:dc="http://purl.org/dc/elements/1.1/"
   xmlns:cc="http://creativecommons.org/ns#"
   xmlns:rdf="http://www.w3.org/1999/02/22-rdf-syntax-ns#"
   xmlns:svg="http://www.w3.org/2000/svg"
   xmlns="http://www.w3.org/2000/svg"
   xmlns:sodipodi="http://sodipodi.sourceforge.net/DTD/sodipodi-0.dtd"
   xmlns:inkscape="http://www.inkscape.org/namespaces/inkscape"
   version="1.1"
   id="Layer_1"
   x="0px"
   y="0px"
   viewBox="0 0 639.59375 776.22024"
   enable-background="new 0 0 1920 1920"
   xml:space="preserve"
   inkscape:version="0.48.4 r9939"
   width="100%"
   height="100%"
   sodipodi:docname="Birds-Silhouettes-Woodpecker.svg"><metadata
     id="metadata37"><rdf:RDF><cc:Work
         rdf:about=""><dc:format>image/svg+xml</dc:format><dc:type
           rdf:resource="http://purl.org/dc/dcmitype/StillImage" /><dc:title></dc:title></cc:Work></rdf:RDF></metadata><defs
     id="defs35" /><sodipodi:namedview
     pagecolor="#ffffff"
     bordercolor="#666666"
     borderopacity="1"
     objecttolerance="10"
     gridtolerance="10"
     guidetolerance="10"
     inkscape:pageopacity="0"
     inkscape:pageshadow="2"
     inkscape:window-width="1855"
     inkscape:window-height="1056"
     id="namedview33"
     showgrid="false"
     units="in"
     fit-margin-top="0.25"
     fit-margin-left="0.25"
     fit-margin-right="0.25"
     fit-margin-bottom="0.25"
     inkscape:zoom="0.34766083"
     inkscape:cx="925.27264"
     inkscape:cy="644.57106"
     inkscape:window-x="65"
     inkscape:window-y="24"
     inkscape:window-maximized="1"
     inkscape:current-layer="Layer_1" /><path
     d="m 223.68375,46.62125 c 4.07,-8.1 8.2,-16.1801 12.77,-24.01 6.24,16.13 12.67,32.45 15.11,49.67 1.24,6.35 -1.16,12.69 -0.08,19.04 1.35,9.88 7.88,18.25 15.48,24.31 12.12,8.82 17.66,23.64 21.2,37.65 3.95,17.96 7.4,36.45 5.47,54.9 12.14,10.38 19.93,24.7 26.89,38.83 6.33,13.89 12.61,27.81 19.79,41.29 6.27,12.42 14.55,23.92 18.64,37.36 2.81,7.86 3.1,16.32 5.79,24.21 2.07,6.67 4.83,13.09 7.49,19.55 4,11.84 6.04,24.36 6.2,36.86 -1.11,23.6899 0.52,47.48 4.18,70.9 3.74,23.97 11.15,47.22 14.04,71.34 2.02,15.36 2.86,30.9 2.07,46.39 10.79,0.13 22.5,2.61 30.12,10.83 3.45,4.2101 6.97,8.4701 11.47,11.62 10.24,7.63 23.58,10.14 36.11,8.7001 7.48,-0.87 14.88,-2.3101 22.39,-2.9401 16.26,-1.46 32.85,-1.0599 48.75,2.92 9.8,2.4 19.72,4.41 29.78,5.35 6.86,0.74 14.01,-0.22 20.6,2.33 8.72,2.9 15.22,10.2201 19.07,18.3501 -12.55,0.4099 -25.1,0.72 -37.64,1.26 -16.3701,1.3999 -33.01,-0.9601 -48.3701,-6.76 -11.67,-4.53 -24.56,-2.78 -36.49,-0.27 -11.14,2.79 -22.98,3.97 -34.25,1.21 -10.41,-2.98 -21.6,-4.29 -30.91,-10.22 -3.94,-2.35 -5.48,-7.3201 -9.79,-9.21 -8.92,-4.29 -19.1,-4.28 -28.79,-4.63 0.19,5.3099 0.42,10.8099 -1.44,15.88 -1.42,4.24 -6.64,5.6499 -7.78,10.09 -2.76,8.33 -2.13,17.3099 -1.64,25.95 0.68,10.6 0.77,21.3 -0.85,31.8301 -0.3,2.7799 -1.63,5.2699 -2.88,7.74 -1.21,-0.28 -2.42,-0.54 -3.62,-0.77 -1.23,1.5699 -3.36,2.87 -3.35,5.1 -0.2,6.51 -0.49,13.03 -0.64,19.55 -0.34,3.59 -0.98,7.47 -3.4,10.2999 -1.45,1.66 -3.8,1.66 -5.81,1.99 -6.69,0.75 -13.36,1.7101 -20.05,2.5 -3.3,0.5601 -5.56,-2.6799 -7.32,-4.98 -5.05,-8.53 -9.01,-17.87 -15.64,-25.37 -4.24,3.72 -5.38,9.9 -10.15,13.17 -1.7,-0.27 -2.02,-2.09 -2.61,-3.39 -1.86,-5.3 -3.47,-10.6901 -4.65,-16.17 -2.13,2.01 -4.07,4.2201 -6.44,5.98 -2.02,-2.46 -2.97,-5.5099 -3.31,-8.61 -0.92,-7.72 -2.65,-15.3099 -3.53,-23.0299 -4.44,3.08 -10.01,3.1799 -15.2,2.9099 -2.79,-5.64 -3.54,-11.96 -4.62,-18.08 -1.04,-6 -1.09,-12.11 -0.66,-18.16 -26.77,-3.9299 -53.93,-1.6 -80.86,-1.1899 -7.1,0.34 -14.36,-0.37 -21.32,1.39 -5.07,0.98 -3.87,7.36 -4.82,11.1599 -19.85,0.06 -38.97,-6.33 -57.18,-13.6599 -18.88,-6.6101 -39.45,-3.51 -58.41,1.13 -6.77,1.6599 -13.39,3.86 -20.04,5.9299 0.46,-6.42 1.92,-12.6799 3.09,-18.98 19.62,-1.85 39.01,-5.76 58.72,-6.63 6.65,-1.36 14.43,-2.53 20.1,2.17 4.92,4.1499 11.92,3.96 17.72,2.01 1.04,-0.5701 2.76,-0.51 3.22,-1.77 1.51,-3.42 0.32,-7.4401 -2.17,-10.05 -5.42,-5.9399 -13.32,-8.39 -20.42,-11.61 -6.25,-3.02 -8.48,-10.1 -13.46,-14.51 -4.53,-4.17 -8.9,-8.9 -14.75,-11.2 -5.9,-2.65 -11.66,-6.26 -15.25,-11.79 -2.94,-4.29 -7.47,-7.2 -12.51,-8.38 5.9,-3.86 12.97,-7.64 20.17,-6.42 13.01,7.92 24.17,18.7001 33.37,30.79 9.35,13.95 22.87,24.99 38.18,31.79 11.92,0.06 23.85,-0.87 35.79,-0.97 14.21,0.04 28.42,-0.6201 42.63,-0.64 -8.23,-6.66 -15.25,-14.61 -22.5,-22.29 -6.11,-6.58 -10.41,-15 -11.05,-24.04 -4.11,0.91 -8.18,1.9601 -12.27,2.9401 -6.93,-6.8101 -10.59,-16.0901 -13.31,-25.22 -4.25,-17.4701 -10.88,-34.3701 -13.16,-52.29 -4.63,1.76 -9.09,4.03 -13.97,5.0499 -3.7,-18.84 -8.25,-37.49 -12.6,-56.1899 -3.93,-16.34 -7.87,-32.72 -10.3,-49.37 -0.71,-4.52 -0.87,-9.1 -0.74,-13.66 -5.09,-4.71 -12.23,-1.75 -17.7,0.6 -3.96,-15.4399 -5.61,-31.35 -6.74,-47.21 -1.58,-15.38 -1.8,-31.04 1.2,-46.26 0.18,-1.37 0.66,-2.76 0.36,-4.13 -6.57,-21.88 -3.37,-45.2 1.49,-67.09 -5.65,-4.52 -10.71,-9.98 -13.79,-16.6 -3.97,-7.8199 -5.19,-16.69 -5.29,-25.37 -1.11,-15.63 0.44,-31.41 4.17,-46.61 1,-6.21 3.27,-12.13 6.27,-17.64 2.92,-5.03 1.37,-11.12 -0.22,-16.32 -1.37,-4.91 -4.78,-8.9399 -5.97,-13.92 -3.32,-11.9 -0.74,-24.49 3.23,-35.9 2.49,-7.3 5.85,-14.34 10.45,-20.55 1.18,2.03 2.4,4.08 3.06,6.35 1.15,3.59 -0.37,7.51 1.15,11.03 2.82,5.31 5.6,10.86 10.33,14.79 8.76,7.17 16.59,15.39 24.57,23.4 1.54,1.4 2.85,3.89 5.32,3.13 19.96,-2.65 40.24,-4.05 60.3,-1.65 7.95,-4.7401 14.76,-11.45 20.49,-18.72 6.2001,-7.8002 9.4501,-17.3102 13.9201,-26.0902 z"
     id="path11"
     inkscape:connector-curvature="0"
     style="stroke:#000000;stroke-width:0.0938" /></svg>